<?xml version="1.0" encoding="utf-8"?>
<!-- Generator: Adobe Illustrator 16.0.0, SVG Export Plug-In . SVG Version: 6.00 Build 0)  -->
<!DOCTYPE svg PUBLIC "-//W3C//DTD SVG 1.1//EN" "http://www.w3.org/Graphics/SVG/1.1/DTD/svg11.dtd">
<svg version="1.1" id="Layer_1" xmlns="http://www.w3.org/2000/svg" xmlns:xlink="http://www.w3.org/1999/xlink" x="0px" y="0px"
	 width="736px" height="800px" viewBox="0 0 736 800" enable-background="new 0 0 736 800" xml:space="preserve">
<g>
	<path fill-rule="evenodd" clip-rule="evenodd" fill="#40AE49" d="M736.07,169.861v245.824H4.181V169.861h181.541L370.166,46.649
		l176.776,118.154l7.583,5.058H736.07L736.07,169.861z M368.083,116.196c22.542,0,40.806,18.011,40.806,40.211
		c0,22.213-18.264,40.224-40.806,40.224c-22.524,0-40.799-18.011-40.799-40.224C327.284,134.207,345.559,116.196,368.083,116.196
		L368.083,116.196z"/>
	<path fill-rule="evenodd" clip-rule="evenodd" fill="#FFFFFF" d="M362.673,246.002c5.484-11.405,13.276-21.7,22.717-30.527
		c19.524-18.245,45.157-29.413,71.646-33.266l16.853-2.453l-1.409,16.786c-2.2,26.258-14.141,50.697-33.537,68.82
		c-8.031,7.515-17.173,13.742-27.063,18.485c10.381,5.147,19.887,11.974,28.153,20.179c19.738,19.59,31.188,45.735,32.683,73.255
		l0.876,16.339l-16-2.152c-27.384-3.685-53.53-15.648-73.074-35.061c-9.186-9.116-16.646-19.626-21.922-31.149
		c-5.115,10.895-12.218,20.865-20.864,29.58c-19.075,19.218-44.584,31.381-71.35,35.875l-16.8,2.822l1.068-17.053
		c1.666-26.687,12.912-51.824,31.886-70.942c8.965-9.036,19.405-16.458,30.85-21.933c-10.387-5.021-19.923-11.678-28.238-19.726
		c-18.338-17.749-29.687-41.235-32.025-66.466l-1.629-17.522l17.537,3.174c25.453,4.605,49.91,16.007,68.467,33.964
		C350.241,225.507,357.483,235.265,362.673,246.002L362.673,246.002z"/>
	<path fill="#40AE49" d="M362.694,271.267c3.274-19.116,13.319-36.407,28.079-50.192c17.175-16.043,40.756-27.355,67.414-31.233
		l7.093-1.032l-0.598,7.09c-2.115,25.1-13.672,47.554-31.123,63.86c-12.175,11.37-27.215,19.75-43.96,23.955
		c17.173,4.479,32.554,13.505,44.877,25.743c17.58,17.463,28.967,41.486,30.42,68.235l0.384,7.021l-6.644-0.89
		c-27.17-3.659-51.245-15.638-68.566-32.848c-14.397-14.295-24.188-32.192-27.391-51.972c-3.168,19.084-12.631,36.412-26.547,50.438
		c-16.885,17.023-40.365,29.186-67.066,33.665l-7.071,1.186l0.458-7.336c1.613-25.713,12.64-48.862,29.676-66.026
		c12.955-13.052,29.387-22.659,47.779-27.291c-17.35-4.406-32.885-13.263-45.285-25.258c-16.521-16.001-27.479-37.592-29.712-61.667
		l-0.688-7.401l7.391,1.337c25.59,4.632,48.067,16.08,64.396,31.886C350.006,236.087,359.517,252.829,362.694,271.267
		L362.694,271.267z M328.139,341.085c13.179-13.279,21.81-29.817,23.85-47.892c-20.165,2.879-38.199,12.323-51.864,26.091
		c-13.382,13.486-22.573,31.113-25.478,50.777C295.895,365.146,314.462,354.871,328.139,341.085L328.139,341.085z M397.674,342.434
		c14.226,14.111,33.515,24.354,55.43,28.639c-2.732-20.707-12.281-39.208-26.251-53.077c-14.205-14.106-32.98-23.411-53.808-25.354
		C374.988,311.554,383.959,328.796,397.674,342.434L397.674,342.434z M328.053,230.633c-13.094-12.675-30.641-22.265-50.72-27.218
		c3.354,18.191,12.4,34.429,25.247,46.867c13.084,12.662,30.103,21.379,49.082,24.194
		C349.13,257.951,340.678,242.855,328.053,230.633L328.053,230.633z M398.57,229.301c-13.5,12.602-22.494,28.402-24.971,45.76
		c20.1-1.936,38.257-10.526,52.186-23.532c13.734-12.821,23.324-29.938,26.614-49.181
		C431.146,206.737,412.476,216.311,398.57,229.301L398.57,229.301z"/>
	<path fill-rule="evenodd" clip-rule="evenodd" fill="#294380" d="M368.083,124.606c17.82,0,32.282,14.244,32.282,31.801
		c0,17.565-14.462,31.813-32.282,31.813c-17.815,0-32.265-14.247-32.265-31.813C335.818,138.85,350.268,124.606,368.083,124.606
		L368.083,124.606z M387.741,156.407c0,10.707-8.802,19.38-19.658,19.38c-10.852,0-19.656-8.674-19.656-19.38
		C348.427,131.123,387.741,131.123,387.741,156.407L387.741,156.407z"/>
	<polygon fill-rule="evenodd" clip-rule="evenodd" fill="#294380" points="412.84,4.521 736.07,4.521 736.07,111.343 
		572.66,111.343 412.84,4.521 	"/>
	<polygon fill-rule="evenodd" clip-rule="evenodd" fill="#294380" points="4.181,4.521 327.493,4.521 167.592,111.343 
		4.181,111.343 4.181,4.521 	"/>
	<polygon fill-rule="evenodd" clip-rule="evenodd" fill="#294380" points="4.181,474.215 736.07,474.215 736.07,444.95 
		4.181,444.95 4.181,474.215 	"/>
	<polygon fill="#ED2129" points="4.187,134.476 174.8,134.476 366.674,6.305 370.123,4 373.557,6.258 376.547,8.206 376.59,8.258 
		565.463,134.476 736.07,134.476 736.07,146.723 563.604,146.723 561.745,146.723 560.122,145.649 370.176,18.695 180.129,145.649 
		178.516,146.723 176.658,146.723 4.187,146.723 4.187,134.476 	"/>
	<polygon fill-rule="evenodd" clip-rule="evenodd" fill="#ED2129" points="271.517,566.745 463.785,566.745 463.785,573.45 
		271.517,573.45 271.517,566.745 	"/>
	<polygon fill-rule="evenodd" clip-rule="evenodd" fill="#294380" points="719.623,695.689 706.594,695.689 706.594,747.492 
		719.623,747.492 719.623,695.689 	"/>
	<path fill-rule="evenodd" clip-rule="evenodd" fill="#294380" d="M660.944,708.228c-0.49-9.833-6.793-13.465-16.769-13.465
		c-4.849,0-9.633,1.043-13.436,4.179c-3.396,2.791-4.913,6.391-4.913,10.729c0,9.482,7.114,14.578,15.423,17.579
		c4.721,1.715,12.411,5.104,12.411,11.052c0,6.633-5.021,8.907-11.087,8.907c-7.988,0-13.435-3.421-13.435-11.76
		c0-1.346,0.148-2.715,0.403-4.053l-4.292,0.928c-0.043,0.642-0.086,1.283-0.086,1.916c0,11.463,8.907,14.264,19.118,14.264
		c5.041,0,10.041-1.073,13.971-4.357c3.545-2.981,5.083-6.813,5.083-11.359c0-10.401-10.338-15.707-19.011-18.644
		c-4.38-1.483-11.471-4.453-11.471-9.948c0-6.315,5.319-8.138,10.873-8.138c7.54,0,13.351,2.928,13.351,11.117
		c0,0.59-0.043,1.18-0.129,1.779L660.944,708.228L660.944,708.228z"/>
	<polygon fill-rule="evenodd" clip-rule="evenodd" fill="#294380" points="583.148,695.689 550.168,695.689 550.168,747.492 
		586.545,747.492 586.545,745.081 563.197,745.081 563.197,720.228 579.966,720.228 579.966,717.807 563.197,717.807 
		563.197,698.111 583.148,698.111 583.148,695.689 	"/>
	<polygon fill-rule="evenodd" clip-rule="evenodd" fill="#294380" points="509.689,695.689 506.612,695.689 495.397,724.755 
		482.944,695.689 469.594,695.689 483.799,728.448 483.799,747.492 496.83,747.492 496.83,728.48 509.689,695.689 	"/>
	<polygon fill-rule="evenodd" clip-rule="evenodd" fill="#294380" points="428.838,695.689 415.809,695.689 415.809,747.492 
		428.838,747.492 428.838,695.689 	"/>
	<path fill-rule="evenodd" clip-rule="evenodd" fill="#294380" d="M327.94,747.492h20.635c17.17,0,23.935-9.602,23.935-25.833
		c0-15.759-6.062-25.97-23.042-25.97H327.94V747.492L327.94,747.492z M340.966,746.039v-48.898h5.816
		c4.368,0,7.731,1.876,9.521,5.864c2.195,4.875,2.366,13.295,2.366,18.569c0,5.273-0.188,13.707-2.382,18.581
		c-1.805,3.969-5.127,5.884-9.505,5.884H340.966L340.966,746.039z"/>
	<polygon fill-rule="evenodd" clip-rule="evenodd" fill="#294380" points="283.387,695.689 250.401,695.689 250.401,747.492 
		286.773,747.492 286.773,745.081 263.426,745.081 263.426,720.228 280.194,720.228 280.194,717.807 263.426,717.807 
		263.426,698.111 283.387,698.111 283.387,695.689 	"/>
	<polygon fill-rule="evenodd" clip-rule="evenodd" fill="#294380" points="188.007,695.689 174.976,695.689 174.976,747.492 
		210.889,747.492 210.889,745.081 188.007,745.081 188.007,695.689 	"/>
	<polygon fill-rule="evenodd" clip-rule="evenodd" fill="#294380" points="130.423,695.689 97.442,695.689 97.442,747.492 
		133.81,747.492 133.81,745.081 110.468,745.081 110.468,720.228 127.235,720.228 127.235,717.807 110.468,717.807 110.468,698.111 
		130.423,698.111 130.423,695.689 	"/>
	<path fill-rule="evenodd" clip-rule="evenodd" fill="#294380" d="M11.978,747.492h25.97c9.373,0,17.169-2.653,17.169-13.053
		c0-8.002-5.233-11.58-12.657-13.044l-7.033-1.389l6.98-1.621c5.943-1.391,10.343-4.338,10.343-10.771
		c0-10.052-9.035-11.926-17.574-11.926H11.978V747.492L11.978,747.492z M25.003,746.039v-25.011h5.896
		c8.187,0,10.899,5.988,10.899,13.252c0,6.98-3.118,11.759-10.622,11.759H25.003L25.003,746.039z M25.003,719.575v-22.435h6.136
		c6.642,0,8.859,4.97,8.859,10.844c0,5.633-1.688,11.591-8.459,11.591H25.003L25.003,719.575z"/>
	<path fill-rule="evenodd" clip-rule="evenodd" fill="#294380" d="M679.614,604.432v51.813h13.029v-26.38h4.337
		c6.857,0,9.313,4.853,9.313,11.011l0.084,4.083l0.087,3.297c0,2.632,0.277,5.463,1.176,7.989h13.84
		c-1.324-3.252-1.814-7.642-2.071-10.559c-0.192-2.537-0.727-7.558-2.2-9.717c-1.346-2.021-5.02-3.559-7.221-4.368l-4.699-1.726
		l4.85-1.211c6.215-1.558,10.829-4.748,10.829-11.496c0-3.915-1.687-6.884-4.934-9.127c-4.037-2.81-9.186-3.61-14.034-3.61H679.614
		L679.614,604.432z M692.644,628.412v-22.001h4.829c7.177,0,10.744,4.042,10.744,10.989c0,6.948-3.567,11.012-10.744,11.012H692.644
		L692.644,628.412z"/>
	<polygon fill-rule="evenodd" clip-rule="evenodd" fill="#294380" points="652.037,604.432 619.056,604.432 619.056,656.245 
		655.434,656.245 655.434,653.834 632.087,653.834 632.087,628.97 648.854,628.97 648.854,626.549 632.087,626.549 632.087,606.854 
		652.037,606.854 652.037,604.432 	"/>
	<polygon fill-rule="evenodd" clip-rule="evenodd" fill="#294380" points="573.644,604.432 560.612,604.432 560.612,656.245 
		596.521,656.245 596.521,653.834 573.644,653.834 573.644,604.432 	"/>
	<polygon fill-rule="evenodd" clip-rule="evenodd" fill="#294380" points="536.71,604.432 533.933,604.432 520.646,650.329 
		508.493,604.432 495.397,604.432 509.348,656.245 521.437,656.245 536.71,604.432 	"/>
	<polygon fill-rule="evenodd" clip-rule="evenodd" fill="#294380" points="472.628,604.432 439.646,604.432 439.646,656.245 
		476.003,656.245 476.003,653.834 452.677,653.834 452.677,628.97 469.445,628.97 469.445,626.549 452.677,626.549 452.677,606.854 
		472.628,606.854 472.628,604.432 	"/>
	<polygon fill-rule="evenodd" clip-rule="evenodd" fill="#294380" points="410.874,604.432 397.845,604.432 397.845,656.245 
		410.874,656.245 410.874,604.432 	"/>
	<polygon fill-rule="evenodd" clip-rule="evenodd" fill="#294380" points="352.352,604.432 339.327,604.432 339.327,656.245 
		375.245,656.245 375.245,653.834 352.352,653.834 352.352,604.432 	"/>
	<polygon fill-rule="evenodd" clip-rule="evenodd" fill="#294380" points="311.75,604.432 278.764,604.432 278.764,656.245 
		315.136,656.245 315.136,653.834 291.788,653.834 291.788,628.97 308.562,628.97 308.562,626.549 291.788,626.549 291.788,606.854 
		311.75,606.854 311.75,604.432 	"/>
	<path fill-rule="evenodd" clip-rule="evenodd" fill="#294380" d="M253.44,638.738l-3.546-0.905
		c0.145,1.075,0.245,2.159,0.245,3.189c0,3.812-1.058,7.339-3.579,10.265c-2.391,2.801-5.483,4.273-9.194,4.273
		c-11.963,0-13.245-14.864-13.245-23.592c0-7.705,0.363-27.116,12.016-27.116c8.502,0,11.395,6.096,11.395,13.686
		c0,0.432-0.005,0.863-0.015,1.295l3.721-1.675c-0.336-10.18-5.996-14.6-16.495-14.6c-7.033,0-12.993,2.337-17.655,7.568
		c-5.031,5.673-6.814,12.77-6.814,20.17c0,14.211,5.245,24.307,20.497,25.769l1.757,0.169l-1.416,6.307
		c2.393,0.441,4.225,1.83,4.225,4.704c0,3.232-2.007,5.002-5.245,5.002c-0.207,0-0.422-0.011-0.634-0.021v0.146
		c1.158,0.202,2.386,0.369,3.491,0.369c2.174,0,4.102-0.62,5.828-1.927c1.33-1.021,2.328-2.293,2.328-4.01
		c0-4.221-3.749-4.884-7.333-4.884h-1.959l1.318-5.748h1.25c5.099,0,9.997-1.19,13.927-4.526c3.583-3.044,5.233-6.895,5.233-11.548
		C253.541,640.318,253.5,639.528,253.44,638.738L253.44,638.738z"/>
	<polygon fill-rule="evenodd" clip-rule="evenodd" fill="#294380" points="170.972,656.245 183.996,656.245 183.996,604.432 
		170.972,604.432 170.972,626.517 154.663,626.517 154.663,604.432 141.637,604.432 141.637,656.245 154.663,656.245 
		154.663,628.928 170.972,628.928 170.972,656.245 	"/>
	<path fill-rule="evenodd" clip-rule="evenodd" fill="#294380" d="M103.044,604.432H91.21l-15.566,51.813h3.059l3.552-11.896h19.133
		l3.3,11.896h12.988L103.044,604.432L103.044,604.432z M82.932,641.928l9.246-31.664l8.55,31.664H82.932L82.932,641.928z"/>
	<path fill-rule="evenodd" clip-rule="evenodd" fill="#294380" d="M11.978,656.245h25.97c9.373,0,17.169-2.653,17.169-13.063
		c0-8-5.233-11.569-12.657-13.033l-7.033-1.389l6.98-1.633c5.943-1.379,10.343-4.326,10.343-10.77
		c0-10.041-9.035-11.926-17.574-11.926H11.978V656.245L11.978,656.245z M25.003,654.792v-25.013h5.896
		c8.187,0,10.899,5.991,10.899,13.254c0,6.98-3.118,11.759-10.622,11.759H25.003L25.003,654.792z M25.003,628.328v-22.433h6.136
		c6.642,0,8.859,4.968,8.859,10.831c0,5.633-1.688,11.602-8.459,11.602H25.003L25.003,628.328z"/>
	<path fill-rule="evenodd" clip-rule="evenodd" fill="#294380" d="M446.354,548.281c-3.908,0-5.617,1.664-5.617,5.527
		s1.688,5.536,5.617,5.536c3.91,0,5.598-1.684,5.598-5.536S450.264,548.281,446.354,548.281L446.354,548.281z"/>
	<path fill-rule="evenodd" clip-rule="evenodd" fill="#294380" d="M411.921,540.155c0.127,1.105,0.214,2.211,0.214,3.273
		c0,3.863-1.025,7.452-3.567,10.442c-2.371,2.812-5.468,4.327-9.208,4.327c-11.982,0-13.221-14.97-13.221-23.697
		c0-7.694,0.341-27.317,12.004-27.317c8.523,0,11.428,6.063,11.428,13.686c0,0.432,0,0.853,0,1.284l3.675-1.662
		c-0.343-10.18-6.003-14.612-16.49-14.612c-7.028,0-12.966,2.348-17.645,7.579c-5.02,5.653-6.836,12.707-6.836,20.107
		c0,15.843,6.195,25.927,23.199,25.927c5.275,0,10.616-1.052,14.76-4.432c3.696-3.001,5.319-6.905,5.319-11.589
		c0-0.801-0.044-1.612-0.087-2.413L411.921,540.155L411.921,540.155z"/>
	<path fill-rule="evenodd" clip-rule="evenodd" fill="#294380" d="M341.303,548.281c-3.91,0-5.619,1.664-5.619,5.527
		s1.699,5.536,5.619,5.536c3.914,0,5.606-1.684,5.606-5.536S345.205,548.281,341.303,548.281L341.303,548.281z"/>
	<polygon fill-rule="evenodd" clip-rule="evenodd" fill="#294380" points="312.423,506.763 270.999,506.763 270.999,509.185 
		284.745,509.185 284.745,558.578 298.747,558.578 298.747,509.185 312.423,509.185 312.423,506.763 	"/>
	<path fill-rule="evenodd" clip-rule="evenodd" fill="#294380" d="M404.381,591.536c-3.91,0-5.641,1.675-5.641,5.527
		c0,3.872,1.709,5.547,5.641,5.547c3.908,0,5.596-1.684,5.596-5.547C409.977,593.222,408.289,591.536,404.381,591.536
		L404.381,591.536z"/>
	<path fill-rule="evenodd" clip-rule="evenodd" fill="#294380" d="M422.323,683.552c-3.909,0-5.618,1.663-5.618,5.527
		c0,3.863,1.709,5.537,5.618,5.537c3.93,0,5.619-1.685,5.619-5.537C427.942,685.226,426.233,683.552,422.323,683.552
		L422.323,683.552z"/>
	<path fill-rule="evenodd" clip-rule="evenodd" fill="#294380" d="M713.108,683.552c-3.91,0-5.619,1.663-5.619,5.527
		c0,3.863,1.709,5.537,5.619,5.537c3.908,0,5.617-1.685,5.617-5.537C718.726,685.226,717.017,683.552,713.108,683.552
		L713.108,683.552z"/>
	<polygon fill-rule="evenodd" clip-rule="evenodd" fill="#ED2129" points="0,660.646 735.302,660.646 735.302,667.351 0,667.351 
		0,660.646 	"/>
	<polygon fill-rule="evenodd" clip-rule="evenodd" fill="#294380" points="0,771.62 735.302,771.62 735.302,800 0,800 0,771.62 	"/>
</g>
</svg>
